<svg width="135" height="40" viewBox="0 0 135 40" fill="none" xmlns="http://www.w3.org/2000/svg">
<path d="M30.5826 9.81244V22.1903C30.5826 22.391 30.5023 22.5834 30.3593 22.7253C30.2164 22.8671 30.0225 22.9469 29.8203 22.9469H25.8829C25.6808 22.9468 25.4869 22.867 25.344 22.7252C25.201 22.5833 25.1207 22.3909 25.1206 22.1903V2.05707C25.1206 1.85643 25.2009 1.66401 25.3439 1.52213C25.4868 1.38025 25.6807 1.30055 25.8829 1.30055H29.5265C29.7287 1.30055 29.9226 1.38025 30.0656 1.52213C30.2085 1.66401 30.2889 1.85643 30.2889 2.05707V4.89237C30.2889 4.89237 31.5913 0.847903 35.4568 0.847903C35.4568 0.847903 39.2802 0.389253 40.8348 4.6005C40.8348 4.6005 42.1373 0.847903 46.0868 0.847903C46.0868 0.847903 51.9602 0.50133 51.9602 6.5325L52.0049 9.85413V22.232C52.0049 22.4327 51.9246 22.6251 51.7817 22.767C51.6387 22.9088 51.4448 22.9885 51.2426 22.9885H47.3049C47.1027 22.9885 46.9089 22.9087 46.7659 22.7669C46.623 22.625 46.5426 22.4326 46.5426 22.232L46.5066 8.72835C46.6185 5.67057 44.1258 5.89306 44.1258 5.89306C40.9887 5.94876 41.2906 9.85413 41.2906 9.85413V22.232C41.2906 22.4327 41.2103 22.6251 41.0673 22.767C40.9243 22.9088 40.7304 22.9885 40.5283 22.9885H36.5909C36.3887 22.9885 36.1949 22.9087 36.0519 22.7669C35.909 22.625 35.8286 22.4326 35.8285 22.232V9.0339C35.8285 9.0339 36.0588 5.86504 33.2575 5.86504C33.2579 5.86504 30.4848 5.50379 30.5826 9.81244ZM132.078 9.77541V22.153C132.077 22.3536 131.997 22.546 131.854 22.6878C131.711 22.8297 131.517 22.9094 131.315 22.9095L127.22 22.9882C127.018 22.9881 126.824 22.9084 126.681 22.7665C126.538 22.6247 126.458 22.4323 126.458 22.2317V9.0339C126.458 9.0339 126.688 5.86504 123.887 5.86504C123.887 5.86504 121.212 5.73428 121.212 10.7027V22.19C121.212 22.3906 121.131 22.583 120.989 22.7248C120.846 22.8667 120.652 22.9464 120.45 22.9465H116.512C116.31 22.9464 116.116 22.8667 115.973 22.7248C115.83 22.583 115.75 22.3906 115.75 22.19V2.05707C115.75 1.85646 115.83 1.66408 115.973 1.52223C116.116 1.38037 116.31 1.30064 116.512 1.30055H120.155C120.358 1.30055 120.552 1.38025 120.695 1.52213C120.837 1.66401 120.918 1.85643 120.918 2.05707V4.89237C120.918 4.89237 122.22 0.847903 126.086 0.847903C126.086 0.847903 130.226 0.224472 131.621 4.52211C131.621 4.52178 132.078 5.40839 132.078 9.77541ZM103.648 0.764512C98.6128 0.764512 94.5306 4.97576 94.5306 12.064C94.5306 18.3046 97.6817 23.3635 103.648 23.3635C109.278 23.3635 112.765 18.3046 112.765 12.064C112.765 5.10084 108.683 0.764512 103.648 0.764512ZM106.826 12.3142C106.826 14.9827 106.49 16.4003 106.49 16.4003C106.012 19.2213 103.948 19.2253 103.644 19.2103C103.316 19.2233 101.235 19.1939 100.804 16.4003C100.804 16.4003 100.468 14.9827 100.468 12.3142V11.8695C100.468 9.20101 100.804 7.78337 100.804 7.78337C101.235 4.98977 103.316 4.96041 103.644 4.97309C103.948 4.95808 106.012 4.96175 106.49 7.78337C106.49 7.78337 106.826 9.20101 106.826 11.8695V12.3142ZM92.2453 4.86435V1.97568C92.2452 1.77507 92.1648 1.58269 92.0219 1.44084C91.8789 1.29898 91.6851 1.21925 91.4829 1.21916H78.4681C78.2659 1.21916 78.072 1.29886 77.9291 1.44074C77.7861 1.58262 77.7058 1.77504 77.7058 1.97568V4.842C77.7059 5.04261 77.7862 5.23499 77.9292 5.37684C78.0721 5.5187 78.266 5.59843 78.4681 5.59852H85.2569L77.2214 17.1665C77.2214 17.1665 76.9048 17.6355 76.9152 18.1535V21.6723C76.9152 21.6723 76.8628 22.8788 78.2416 22.1787C78.2416 22.1787 80.6906 20.7103 84.797 20.7103C84.797 20.7103 88.8524 20.6603 91.5562 22.3051C91.5562 22.3051 92.6785 22.8114 92.6785 21.698V18.6352C92.6785 18.6352 92.7804 17.8246 91.7091 17.3186C91.7091 17.3186 88.5973 15.6228 84.5164 15.901L92.2453 4.86435ZM22.0817 19.3464L20.8491 17.4844C20.4568 16.7893 20.4851 16.0107 20.4851 16.0107V7.42178C20.6531 -1.68681e-05 12.3619 0.639426 12.3619 0.639426C4.99135 0.639426 3.90264 6.3317 3.90264 6.3317C3.59542 7.47615 4.48884 7.50384 4.48884 7.50384L8.09043 7.86642C8.09043 7.86642 8.70453 8.00585 8.92805 7.28035C8.92805 7.28035 9.40233 4.79697 12.0547 4.79697C14.9407 4.79697 14.9108 7.255 14.9108 7.255V9.31276C9.14956 9.50389 6.47971 11.091 6.47971 11.091C2.92249 13.0924 3.14635 17.0675 3.14635 17.0675C3.14635 23.5439 9.36468 23.2657 9.36468 23.2657C13.3421 23.2657 15.6949 20.3751 15.6949 20.3751C16.3951 21.5986 17.6838 22.7654 17.6838 22.7654C18.3285 23.4592 19.0004 22.8768 19.0004 22.8768L21.9136 20.4031C22.5576 19.9301 22.0817 19.3464 22.0817 19.3464ZM11.3058 19.2663C9.43493 19.2663 8.73949 17.4214 9.05007 15.6081C9.36098 13.7949 10.9757 12.3699 14.9111 12.4116V13.514C15.0506 18.33 12.8631 19.2663 11.3058 19.2663ZM74.405 19.3464L73.1728 17.4844C72.7805 16.7893 72.8084 16.0107 72.8084 16.0107V7.42178C72.9765 -1.68681e-05 64.6853 0.639426 64.6853 0.639426C57.3147 0.639426 56.226 6.3317 56.226 6.3317C55.9188 7.47615 56.8122 7.50384 56.8122 7.50384L60.4138 7.86642C60.4138 7.86642 61.0279 8.00585 61.2514 7.28035C61.2514 7.28035 61.7257 4.79697 64.3781 4.79697C67.264 4.79697 67.2341 7.255 67.2341 7.255V9.31276C61.4733 9.50389 58.8031 11.091 58.8031 11.091C55.2459 13.0924 55.4697 17.0675 55.4697 17.0675C55.4697 23.5439 61.688 23.2657 61.688 23.2657C65.6654 23.2657 68.0183 20.3751 68.0183 20.3751C68.7188 21.5986 70.0068 22.7654 70.0068 22.7654C70.6515 23.4592 71.3238 22.8768 71.3238 22.8768L74.2366 20.4031C74.881 19.9301 74.405 19.3464 74.405 19.3464ZM63.6292 19.2663C61.7583 19.2663 61.0629 17.4214 61.3734 15.6081C61.6844 13.7949 63.2991 12.3699 67.2341 12.4116V13.514C67.3739 18.33 65.1868 19.2663 63.6292 19.2663Z" fill="#F4F0FF"/>
<path d="M84.3186 35.6036C84.3186 35.6036 83.9892 36.1724 84.3939 36.2995C84.3939 36.2995 84.851 36.4766 85.4211 35.9515C85.4211 35.9515 89.5786 32.3474 89.6788 25.7855C89.6788 25.7855 89.7094 24.966 89.378 24.7418C89.378 24.7418 88.0755 23.5983 83.3919 23.9462C83.3919 23.9462 79.3093 24.2198 77.0805 26.1835C77.0805 26.1835 76.8801 26.3572 76.8801 26.5807C76.8801 26.5807 76.8321 27.0634 78.0573 26.8543C78.0573 26.8543 82.1395 26.2822 84.569 26.5807C84.569 26.5807 85.8218 26.7298 86.1723 27.1528C86.1723 27.1528 86.7485 27.6251 86.4476 29.1905C86.4476 29.1912 85.6208 33.168 84.3186 35.6036Z" fill="#F4F0FF" fill-opacity="0.55"/>
<path d="M83.4959 29.3083C83.4959 29.3083 84.1056 30.0922 83.1218 30.7683C83.1218 30.7683 72.6121 39.1107 54.9655 39.1107C54.9655 39.1107 36.8006 40 21.6329 26.3239C21.6329 26.3239 21.1012 25.8606 21.4313 25.4299C21.4313 25.4299 21.7264 25.0337 22.4904 25.4646C22.4904 25.4646 36.7586 34.2877 55.4976 34.2877C55.4976 34.2877 68.5225 34.7881 81.8835 29.1175C81.8835 29.1175 82.948 28.5701 83.4959 29.3083Z" fill="#F4F0FF" fill-opacity="0.55"/>
</svg>
