<svg width="228" height="40" viewBox="0 0 228 40" fill="none" xmlns="http://www.w3.org/2000/svg">
<g clip-path="url(#clip0_74_4289)">
<path d="M174.318 31.7463L183.059 8.47162H186.423L195.163 31.7463H191.858L189.629 25.4347H179.882L177.613 31.7463H174.309H174.318ZM180.888 22.6406H188.593L184.805 12.1377H184.677L180.888 22.6406ZM203.518 32.2616C201.467 32.2616 199.701 31.4491 198.211 29.8241C196.722 28.1991 195.982 26.1877 195.982 23.78C195.982 21.3723 196.722 19.3609 198.211 17.7359C199.701 16.111 201.467 15.2985 203.518 15.2985C204.732 15.2985 205.817 15.5561 206.774 16.0812C207.731 16.5965 208.451 17.2504 208.924 18.0332H209.053L208.924 15.8236V8.47162H211.904V31.7463H209.053V29.5368H208.924C208.451 30.3195 207.731 30.9636 206.774 31.4887C205.817 32.0039 204.732 32.2715 203.518 32.2715V32.2616ZM204.002 29.5269C205.403 29.5269 206.596 29.0017 207.583 27.9713C208.569 26.9309 209.053 25.5338 209.053 23.78C209.053 22.0262 208.559 20.6292 207.583 19.5888C206.596 18.5484 205.403 18.0332 204.002 18.0332C202.601 18.0332 201.437 18.5583 200.441 19.6086C199.454 20.6589 198.951 22.056 198.951 23.7899C198.951 25.5239 199.444 26.921 200.441 27.9713C201.437 29.0215 202.621 29.5467 204.002 29.5467V29.5269ZM221.255 32.2616C219.49 32.2616 218.02 31.8256 216.866 30.9636C215.711 30.0916 214.863 29.0116 214.32 27.7136L216.974 26.6138C217.813 28.6054 219.253 29.6061 221.275 29.6061C222.202 29.6061 222.962 29.3981 223.554 28.9918C224.146 28.5757 224.442 28.0406 224.442 27.3668C224.442 26.3265 223.722 25.623 222.271 25.2564L219.065 24.4736C218.049 24.216 217.092 23.7206 216.185 22.9973C215.277 22.2739 214.824 21.293 214.824 20.0545C214.824 18.6475 215.445 17.4981 216.688 16.6262C217.931 15.7443 219.401 15.3084 221.107 15.3084C222.508 15.3084 223.761 15.6254 224.856 16.2695C225.961 16.9036 226.74 17.8251 227.224 19.0141L224.629 20.0842C224.047 18.6772 222.834 17.9737 221.009 17.9737C220.121 17.9737 219.381 18.162 218.779 18.5286C218.178 18.8952 217.872 19.3906 217.872 20.0248C217.872 20.9363 218.572 21.5506 219.973 21.8776L223.11 22.6207C224.6 22.9675 225.695 23.562 226.415 24.4042C227.125 25.2465 227.48 26.2076 227.48 27.2678C227.48 28.6946 226.898 29.8935 225.734 30.8447C224.57 31.7959 223.071 32.2715 221.236 32.2715L221.255 32.2616Z" fill="#F4F0FF"/>
<path d="M74.2399 32.2219C67.0583 32.2219 60.873 26.2868 60.873 19.0735C60.873 11.8603 66.9202 5.92517 74.2399 5.92517C78.176 5.92517 81.1354 7.48078 83.2465 9.60117L80.7113 12.1476C79.1625 10.7307 77.0514 9.60117 74.2399 9.60117C69.0313 9.60117 64.8091 13.8419 64.8091 19.2123C64.8091 24.5826 68.8932 28.8234 74.2399 28.8234C77.6137 28.8234 79.5867 27.4065 80.8592 26.1382C81.8457 25.1474 82.5461 23.5918 82.8322 21.6101H74.2498V18.0728H86.3539C86.4921 18.7763 86.4921 19.4897 86.4921 20.3319C86.4921 23.0171 85.7917 26.4156 83.3945 28.8135C81.0072 30.9338 78.0477 32.2021 74.2498 32.2021L74.2399 32.2219ZM105.058 23.7404C105.058 28.6846 101.26 32.2219 96.7515 32.2219C92.2433 32.2219 88.4453 28.6846 88.4453 23.7404C88.4453 18.7961 92.2433 15.2588 96.7515 15.2588C101.26 15.2588 105.058 18.9348 105.058 23.7404ZM101.398 23.7404C101.398 20.6292 99.2868 18.6475 96.7515 18.6475C94.2162 18.6475 92.1052 20.7679 92.1052 23.7404C92.1052 26.7129 94.2162 28.8333 96.7515 28.8333C99.2868 28.972 101.398 26.8516 101.398 23.7404ZM123.771 23.7404C123.771 28.6846 119.973 32.2219 115.465 32.2219C110.957 32.2219 107.159 28.6846 107.159 23.7404C107.159 18.7961 110.957 15.2588 115.465 15.2588C119.973 15.2588 123.771 18.9348 123.771 23.7404ZM120.111 23.7404C120.111 20.6292 118 18.6475 115.465 18.6475C112.93 18.6475 110.819 20.7679 110.819 23.7404C110.819 26.7129 112.93 28.8333 115.465 28.8333C117.862 28.972 120.111 26.8516 120.111 23.7404ZM141.923 15.8236V31.0924C141.923 37.3148 138.263 40 133.903 40C129.818 40 127.283 37.1761 126.445 35.0557L129.68 33.6388C130.243 35.0557 131.653 36.6113 133.903 36.6113C136.714 36.6113 138.401 34.917 138.401 31.6671V30.3988H138.263C137.414 31.3896 135.875 32.3805 133.764 32.3805C129.542 32.3805 125.744 28.7045 125.744 23.8989C125.744 19.0934 129.68 15.4174 133.764 15.4174C135.737 15.4174 137.424 16.2695 138.263 17.2504H138.401V15.8335H141.923V15.8236ZM138.687 23.8791C138.687 20.9066 136.714 18.6475 134.189 18.6475C131.663 18.6475 129.542 20.7679 129.542 23.8791C129.542 26.9903 131.653 28.972 134.189 28.972C136.724 28.972 138.687 26.7129 138.687 23.8791ZM148.394 6.77729V31.6572H144.734V6.7872H148.394V6.77729ZM163.024 26.5643L165.835 28.5459C164.849 29.9628 162.737 32.3606 158.801 32.3606C154.017 32.3606 150.495 28.6846 150.495 23.8791C150.495 18.7862 154.017 15.3976 158.377 15.3976C162.737 15.3976 164.849 18.9348 165.559 20.7679L165.983 21.7587L154.727 26.4255C155.576 28.1199 156.976 28.972 158.811 28.972C160.646 28.972 162.047 27.9812 163.033 26.5742L163.024 26.5643ZM154.155 23.453L161.751 20.3418C161.327 19.351 160.064 18.5088 158.653 18.5088C156.68 18.5088 154.007 20.2031 154.155 23.453Z" fill="#F4F0FF"/>
<path d="M1.43755 26.6435L14.9918 3.349C16.7182 4.36956 25.3894 9.19492 26.7902 10.1065L13.2359 33.401C11.7562 35.3629 -0.436773 29.6259 1.43755 26.6435Z" fill="#F4F0FF" fill-opacity="0.55"/>
<path d="M40.3935 26.6436L26.8491 3.34904C24.9551 0.178373 20.871 -0.970996 17.5268 0.901682C14.1728 2.77436 13.1567 6.79715 15.0508 10.1065L28.6051 33.411C30.4991 36.5717 34.5831 37.7211 37.9273 35.8583C41.1334 33.9857 42.2975 29.8142 40.4034 26.6535L40.3935 26.6436Z" fill="#F4F0FF"/>
<path d="M7.29688 23.4233C11.0554 23.4233 14.0938 26.4058 14.0938 30.0818C14.0938 33.7577 11.0455 36.7402 7.29688 36.7402C3.54824 36.7402 0.5 33.7577 0.5 30.0818C0.5 26.4058 3.54824 23.4233 7.29688 23.4233Z" fill="#F4F0FF"/>
</g>
<defs>
<clipPath id="clip0_74_4289">
<rect width="227" height="40" fill="white" transform="translate(0.5)"/>
</clipPath>
</defs>
</svg>
