<svg width="143" height="40" viewBox="0 0 143 40" fill="none" xmlns="http://www.w3.org/2000/svg">
<g clip-path="url(#clip0_508_1615)">
<path d="M7.52328 27.3C6.08328 27.3 4.85661 26.9867 3.84328 26.36C2.82995 25.7267 2.05328 24.8467 1.51328 23.72C0.979948 22.5933 0.713281 21.2867 0.713281 19.8C0.713281 18.3133 0.979948 17.0067 1.51328 15.88C2.05328 14.7533 2.82995 13.8767 3.84328 13.25C4.85661 12.6167 6.08328 12.3 7.52328 12.3C9.18328 12.3 10.5566 12.72 11.6433 13.56C12.7366 14.4 13.4966 15.53 13.9233 16.95L11.8033 17.52C11.5233 16.5133 11.0233 15.7233 10.3033 15.15C9.58995 14.5767 8.66328 14.29 7.52328 14.29C6.50328 14.29 5.65328 14.52 4.97328 14.98C4.29328 15.44 3.77995 16.0833 3.43328 16.91C3.09328 17.7367 2.92328 18.7 2.92328 19.8C2.91661 20.9 3.08328 21.8633 3.42328 22.69C3.76995 23.5167 4.28328 24.16 4.96328 24.62C5.64995 25.08 6.50328 25.31 7.52328 25.31C8.66328 25.31 9.58995 25.0233 10.3033 24.45C11.0233 23.87 11.5233 23.08 11.8033 22.08L13.9233 22.65C13.4966 24.07 12.7366 25.2 11.6433 26.04C10.5566 26.88 9.18328 27.3 7.52328 27.3ZM20.8127 27.3C19.7327 27.3 18.796 27.0567 18.0027 26.57C17.2093 26.0833 16.596 25.4133 16.1627 24.56C15.736 23.7 15.5227 22.71 15.5227 21.59C15.5227 20.4633 15.7427 19.4733 16.1827 18.62C16.6227 17.76 17.2393 17.0933 18.0327 16.62C18.826 16.14 19.7527 15.9 20.8127 15.9C21.8927 15.9 22.8293 16.1433 23.6227 16.63C24.416 17.1167 25.0293 17.7867 25.4627 18.64C25.896 19.4933 26.1127 20.4767 26.1127 21.59C26.1127 22.7167 25.8927 23.71 25.4527 24.57C25.0193 25.4233 24.406 26.0933 23.6127 26.58C22.8193 27.06 21.886 27.3 20.8127 27.3ZM20.8127 25.33C21.846 25.33 22.616 24.9833 23.1227 24.29C23.636 23.59 23.8927 22.69 23.8927 21.59C23.8927 20.4633 23.6327 19.5633 23.1127 18.89C22.5993 18.21 21.8327 17.87 20.8127 17.87C20.1127 17.87 19.536 18.03 19.0827 18.35C18.6293 18.6633 18.2927 19.1 18.0727 19.66C17.8527 20.2133 17.7427 20.8567 17.7427 21.59C17.7427 22.7233 18.0027 23.63 18.5227 24.31C19.0427 24.99 19.806 25.33 20.8127 25.33ZM41.2502 27L41.2602 20.27C41.2602 19.49 41.0602 18.8833 40.6602 18.45C40.2602 18.01 39.7335 17.79 39.0802 17.79C38.6802 17.79 38.3135 17.8833 37.9802 18.07C37.6535 18.25 37.3868 18.5233 37.1802 18.89C36.9802 19.25 36.8802 19.7033 36.8802 20.25L35.8702 19.74C35.8568 18.98 36.0168 18.3133 36.3502 17.74C36.6902 17.1667 37.1502 16.7233 37.7302 16.41C38.3102 16.09 38.9602 15.93 39.6802 15.93C40.8468 15.93 41.7502 16.28 42.3902 16.98C43.0302 17.68 43.3502 18.61 43.3502 19.77L43.3402 27H41.2502ZM28.3002 27V16.2H30.1602V19.32H30.4002V27H28.3002ZM34.7802 27L34.7902 20.31C34.7902 19.5233 34.5902 18.9067 34.1902 18.46C33.7968 18.0133 33.2668 17.79 32.6002 17.79C31.9402 17.79 31.4068 18.0167 31.0002 18.47C30.6002 18.9233 30.4002 19.5167 30.4002 20.25L29.4002 19.61C29.4002 18.9033 29.5702 18.2733 29.9102 17.72C30.2502 17.1667 30.7102 16.73 31.2902 16.41C31.8702 16.09 32.5268 15.93 33.2602 15.93C34.0268 15.93 34.6802 16.0933 35.2202 16.42C35.7602 16.74 36.1702 17.19 36.4502 17.77C36.7368 18.35 36.8802 19.0233 36.8802 19.79L36.8702 27H34.7802ZM46.1469 14.43V12.4H48.2369V14.43H46.1469ZM46.1469 27V16.2H48.2369V27H46.1469ZM58.8198 27V21.69C58.8198 21.27 58.7832 20.84 58.7098 20.4C58.6432 19.9533 58.5098 19.54 58.3098 19.16C58.1165 18.78 57.8398 18.4733 57.4798 18.24C57.1265 18.0067 56.6632 17.89 56.0898 17.89C55.7165 17.89 55.3632 17.9533 55.0298 18.08C54.6965 18.2 54.4032 18.3967 54.1498 18.67C53.9032 18.9433 53.7065 19.3033 53.5598 19.75C53.4198 20.1967 53.3498 20.74 53.3498 21.38L52.0498 20.89C52.0498 19.91 52.2332 19.0467 52.5998 18.3C52.9665 17.5467 53.4932 16.96 54.1798 16.54C54.8665 16.12 55.6965 15.91 56.6698 15.91C57.4165 15.91 58.0432 16.03 58.5498 16.27C59.0565 16.51 59.4665 16.8267 59.7798 17.22C60.0998 17.6067 60.3432 18.03 60.5098 18.49C60.6765 18.95 60.7898 19.4 60.8498 19.84C60.9098 20.28 60.9398 20.6667 60.9398 21V27H58.8198ZM51.2298 27V16.2H53.0998V19.32H53.3498V27H51.2298ZM67.9945 32.1C67.4145 32.1 66.8512 32.01 66.3045 31.83C65.7645 31.65 65.2712 31.3833 64.8245 31.03C64.3779 30.6833 64.0079 30.2533 63.7145 29.74L65.6445 28.76C65.8779 29.22 66.2112 29.5567 66.6445 29.77C67.0779 29.9833 67.5345 30.09 68.0145 30.09C68.6079 30.09 69.1145 29.9833 69.5345 29.77C69.9545 29.5633 70.2712 29.25 70.4845 28.83C70.7045 28.41 70.8112 27.89 70.8045 27.27V24.25H71.0545V16.2H72.9045V27.29C72.9045 27.5767 72.8945 27.85 72.8745 28.11C72.8545 28.37 72.8179 28.63 72.7645 28.89C72.6112 29.6167 72.3179 30.2167 71.8845 30.69C71.4579 31.1633 70.9112 31.5167 70.2445 31.75C69.5845 31.9833 68.8345 32.1 67.9945 32.1ZM67.8345 27.3C66.8279 27.3 65.9579 27.05 65.2245 26.55C64.4979 26.05 63.9345 25.37 63.5345 24.51C63.1412 23.6433 62.9445 22.67 62.9445 21.59C62.9445 20.5033 63.1445 19.5333 63.5445 18.68C63.9445 17.82 64.5112 17.1433 65.2445 16.65C65.9845 16.15 66.8612 15.9 67.8745 15.9C68.8945 15.9 69.7512 16.15 70.4445 16.65C71.1445 17.1433 71.6712 17.82 72.0245 18.68C72.3845 19.54 72.5645 20.51 72.5645 21.59C72.5645 22.67 72.3845 23.64 72.0245 24.5C71.6645 25.36 71.1345 26.0433 70.4345 26.55C69.7345 27.05 68.8679 27.3 67.8345 27.3ZM68.1245 25.41C68.8112 25.41 69.3712 25.2467 69.8045 24.92C70.2379 24.5933 70.5545 24.1433 70.7545 23.57C70.9545 22.9967 71.0545 22.3367 71.0545 21.59C71.0545 20.8433 70.9512 20.1833 70.7445 19.61C70.5445 19.0367 70.2312 18.59 69.8045 18.27C69.3845 17.95 68.8479 17.79 68.1945 17.79C67.5012 17.79 66.9312 17.96 66.4845 18.3C66.0379 18.64 65.7045 19.0967 65.4845 19.67C65.2712 20.2433 65.1645 20.8833 65.1645 21.59C65.1645 22.3033 65.2712 22.95 65.4845 23.53C65.7045 24.1033 66.0312 24.56 66.4645 24.9C66.9045 25.24 67.4579 25.41 68.1245 25.41ZM83.8464 27.29C82.5331 27.29 81.4631 27 80.6364 26.42C79.8097 25.84 79.3031 25.0233 79.1164 23.97L81.2564 23.64C81.3897 24.2 81.6964 24.6433 82.1764 24.97C82.6631 25.29 83.2664 25.45 83.9864 25.45C84.6397 25.45 85.1497 25.3167 85.5164 25.05C85.8897 24.7833 86.0764 24.4167 86.0764 23.95C86.0764 23.6767 86.0097 23.4567 85.8764 23.29C85.7497 23.1167 85.4797 22.9533 85.0664 22.8C84.6531 22.6467 84.0231 22.4567 83.1764 22.23C82.2497 21.99 81.5131 21.7333 80.9664 21.46C80.4264 21.18 80.0397 20.8567 79.8064 20.49C79.5797 20.1167 79.4664 19.6667 79.4664 19.14C79.4664 18.4867 79.6397 17.9167 79.9864 17.43C80.3331 16.9433 80.8197 16.5667 81.4464 16.3C82.0797 16.0333 82.8197 15.9 83.6664 15.9C84.4931 15.9 85.2297 16.03 85.8764 16.29C86.5231 16.55 87.0464 16.92 87.4464 17.4C87.8464 17.8733 88.0864 18.43 88.1664 19.07L86.0264 19.46C85.9531 18.94 85.7097 18.53 85.2964 18.23C84.8831 17.93 84.3464 17.7667 83.6864 17.74C83.0531 17.7133 82.5397 17.82 82.1464 18.06C81.7531 18.2933 81.5564 18.6167 81.5564 19.03C81.5564 19.27 81.6297 19.4733 81.7764 19.64C81.9297 19.8067 82.2231 19.9667 82.6564 20.12C83.0897 20.2733 83.7297 20.4567 84.5764 20.67C85.4831 20.9033 86.2031 21.1633 86.7364 21.45C87.2697 21.73 87.6497 22.0667 87.8764 22.46C88.1097 22.8467 88.2264 23.3167 88.2264 23.87C88.2264 24.9367 87.8364 25.7733 87.0564 26.38C86.2831 26.9867 85.2131 27.29 83.8464 27.29ZM95.1291 27.3C94.0491 27.3 93.1124 27.0567 92.3191 26.57C91.5257 26.0833 90.9124 25.4133 90.4791 24.56C90.0524 23.7 89.8391 22.71 89.8391 21.59C89.8391 20.4633 90.0591 19.4733 90.4991 18.62C90.9391 17.76 91.5557 17.0933 92.3491 16.62C93.1424 16.14 94.0691 15.9 95.1291 15.9C96.2091 15.9 97.1457 16.1433 97.9391 16.63C98.7324 17.1167 99.3457 17.7867 99.7791 18.64C100.212 19.4933 100.429 20.4767 100.429 21.59C100.429 22.7167 100.209 23.71 99.7691 24.57C99.3357 25.4233 98.7224 26.0933 97.9291 26.58C97.1357 27.06 96.2024 27.3 95.1291 27.3ZM95.1291 25.33C96.1624 25.33 96.9324 24.9833 97.4391 24.29C97.9524 23.59 98.2091 22.69 98.2091 21.59C98.2091 20.4633 97.9491 19.5633 97.4291 18.89C96.9157 18.21 96.1491 17.87 95.1291 17.87C94.4291 17.87 93.8524 18.03 93.3991 18.35C92.9457 18.6633 92.6091 19.1 92.3891 19.66C92.1691 20.2133 92.0591 20.8567 92.0591 21.59C92.0591 22.7233 92.3191 23.63 92.8391 24.31C93.3591 24.99 94.1224 25.33 95.1291 25.33ZM107.317 27.3C106.237 27.3 105.3 27.0567 104.507 26.57C103.713 26.0833 103.1 25.4133 102.667 24.56C102.24 23.7 102.027 22.71 102.027 21.59C102.027 20.4633 102.247 19.4733 102.687 18.62C103.127 17.76 103.743 17.0933 104.537 16.62C105.33 16.14 106.257 15.9 107.317 15.9C108.397 15.9 109.333 16.1433 110.127 16.63C110.92 17.1167 111.533 17.7867 111.967 18.64C112.4 19.4933 112.617 20.4767 112.617 21.59C112.617 22.7167 112.397 23.71 111.957 24.57C111.523 25.4233 110.91 26.0933 110.117 26.58C109.323 27.06 108.39 27.3 107.317 27.3ZM107.317 25.33C108.35 25.33 109.12 24.9833 109.627 24.29C110.14 23.59 110.397 22.69 110.397 21.59C110.397 20.4633 110.137 19.5633 109.617 18.89C109.103 18.21 108.337 17.87 107.317 17.87C106.617 17.87 106.04 18.03 105.587 18.35C105.133 18.6633 104.797 19.1 104.577 19.66C104.357 20.2133 104.247 20.8567 104.247 21.59C104.247 22.7233 104.507 23.63 105.027 24.31C105.547 24.99 106.31 25.33 107.317 25.33ZM122.394 27V21.69C122.394 21.27 122.357 20.84 122.284 20.4C122.217 19.9533 122.084 19.54 121.884 19.16C121.691 18.78 121.414 18.4733 121.054 18.24C120.701 18.0067 120.237 17.89 119.664 17.89C119.291 17.89 118.937 17.9533 118.604 18.08C118.271 18.2 117.977 18.3967 117.724 18.67C117.477 18.9433 117.281 19.3033 117.134 19.75C116.994 20.1967 116.924 20.74 116.924 21.38L115.624 20.89C115.624 19.91 115.807 19.0467 116.174 18.3C116.541 17.5467 117.067 16.96 117.754 16.54C118.441 16.12 119.271 15.91 120.244 15.91C120.991 15.91 121.617 16.03 122.124 16.27C122.631 16.51 123.041 16.8267 123.354 17.22C123.674 17.6067 123.917 18.03 124.084 18.49C124.251 18.95 124.364 19.4 124.424 19.84C124.484 20.28 124.514 20.6667 124.514 21V27H122.394ZM114.804 27V16.2H116.674V19.32H116.924V27H114.804ZM127.479 27V24.79H129.689V27H127.479ZM133.201 27V24.79H135.411V27H133.201ZM138.924 27V24.79H141.134V27H138.924Z" fill="#F4F0FF" fill-opacity="0.55"/>
</g>
<defs>
<clipPath id="clip0_508_1615">
<rect width="142" height="40" fill="white" transform="translate(0.5)"/>
</clipPath>
</defs>
</svg>
