<svg width="131" height="40" viewBox="0 0 131 40" fill="none" xmlns="http://www.w3.org/2000/svg">
<g clip-path="url(#clip0_74_4274)">
<path d="M48.2324 7.9325H53.0852L61.4123 22.9072L69.7393 7.9325H74.4818V32.5063H70.5113V13.692L63.2321 26.692H59.4822L52.2029 13.692V32.5063H48.2324V7.9325Z" fill="#F4F0FF"/>
<path d="M90.3083 18.3544C89.4811 17.5317 88.3782 17.0928 86.9996 17.0928C85.6761 17.0928 84.5731 17.5317 83.6908 18.4093C82.8085 19.2869 82.257 20.4388 81.9813 21.9198H91.6869C91.5767 20.384 91.1355 19.2321 90.3083 18.3544ZM87.3856 32.9452C85.5106 32.9452 83.9114 32.5612 82.5328 31.7384C81.1541 30.9156 80.0512 29.8186 79.2791 28.3376C78.5071 26.9114 78.1211 25.2658 78.1211 23.4009C78.1211 21.5359 78.5071 19.8355 79.2791 18.4093C80.0512 16.9831 81.099 15.8312 82.4776 15.0085C83.8563 14.1857 85.4003 13.8017 87.165 13.8017C88.9297 13.8017 90.4186 14.2405 91.6869 15.0633C92.9553 15.8861 93.9479 17.038 94.6097 18.519C95.2714 20 95.6574 21.7553 95.6574 23.73V24.827H82.0916C82.3122 26.308 82.9739 27.5148 83.9114 28.3924C84.904 29.2701 86.1172 29.7089 87.6062 29.7089C88.8194 29.7089 89.812 29.5443 90.6943 29.1603C91.5767 28.8312 92.3487 28.2827 93.1207 27.5696L95.2163 30.1477C93.0105 32.0127 90.4186 32.9452 87.3856 32.9452Z" fill="#F4F0FF"/>
<path d="M100.4 17.4219H96.7051V14.1856H100.4V8.81012H104.26V14.1856H109.83V17.4219H104.26V25.6498C104.26 27.0211 104.481 28.0084 104.977 28.557C105.473 29.1603 106.245 29.4346 107.403 29.4346C107.9 29.4346 108.341 29.4346 108.672 29.3797C109.003 29.3249 109.389 29.27 109.83 29.2152V32.4515C109.333 32.616 108.837 32.6709 108.341 32.7806C107.789 32.8903 107.183 32.8903 106.631 32.8903C102.495 32.8903 100.4 30.6413 100.4 26.0886V17.4219Z" fill="#F4F0FF"/>
<path d="M126.043 20.6033C125.657 19.5612 124.995 18.7384 124.113 18.135C123.23 17.5316 122.183 17.2574 121.025 17.2025C119.37 17.2025 118.047 17.751 117.109 18.8481C116.117 19.9451 115.62 21.4261 115.62 23.2911C115.62 25.1561 116.117 26.692 117.054 27.789C117.992 28.886 119.26 29.4346 120.859 29.4346C122.072 29.4346 123.12 29.1055 124.058 28.5021C124.995 27.8987 125.657 27.0759 126.043 26.0337V20.6033ZM129.848 32.5063H126.043V29.9282C125.381 30.8607 124.499 31.6287 123.506 32.1223C122.458 32.616 121.3 32.8903 119.977 32.8903C118.378 32.8903 116.889 32.4515 115.676 31.6287C114.407 30.8059 113.415 29.654 112.698 28.2278C111.981 26.8017 111.595 25.1561 111.595 23.2911C111.595 21.4261 111.981 19.7806 112.698 18.2996C113.415 16.8734 114.462 15.7215 115.731 14.8987C116.999 14.0759 118.488 13.692 120.197 13.692C121.466 13.692 122.569 13.9114 123.561 14.405C124.554 14.8987 125.381 15.6118 126.043 16.4894V14.1308H129.848V32.5063Z" fill="#F4F0FF"/>
<path d="M40.0163 22.4135C40.0163 23.346 40.0163 24.3333 40.0163 25.2658C40.0163 25.3207 40.0163 25.3207 40.0163 25.3755C40.0163 25.5949 40.0163 25.7595 39.9612 25.9789C39.906 26.5274 39.7957 27.076 39.6855 27.5696C39.4649 28.3924 39.1891 29.1603 38.8031 29.8734C38.4722 30.4768 38.0311 31.0253 37.5348 31.4641C37.259 31.7384 36.9282 31.9578 36.5973 32.1772C35.9355 32.5612 35.2186 32.8354 34.4466 32.9452C34.3363 32.9452 34.2812 32.9451 34.1709 33C33.6194 33 33.0128 33 32.4614 33C32.4062 33 32.4062 33 32.3511 33C32.1305 32.9451 31.8548 32.9452 31.6342 32.8903C31.0827 32.7806 30.5864 32.616 30.1452 32.3418C29.5386 32.0127 29.0423 31.6287 28.546 31.1899C28.16 30.8059 27.774 30.4219 27.3879 29.9831C26.8365 29.3249 26.3402 28.6118 25.8439 27.9536C25.127 26.8565 24.4101 25.7595 23.7483 24.6076C22.9763 23.2911 22.2042 21.9747 21.4322 20.7131C21.2116 20.3291 20.9359 19.9451 20.7153 19.5612C20.7153 19.5612 20.7153 19.5063 20.6602 19.5063C20.605 19.4515 20.605 19.4515 20.5499 19.5063C20.5499 19.5063 20.5499 19.5612 20.4947 19.5612C20.4396 19.6709 20.3293 19.8354 20.2741 19.9451C19.9433 20.4937 19.6124 21.097 19.2815 21.6456C18.7301 22.5781 18.2337 23.5105 17.6823 24.3882C17.186 25.2658 16.6897 26.0886 16.1382 26.9114C15.6419 27.7342 15.0904 28.5021 14.4838 29.27C13.9875 29.8734 13.4912 30.4768 12.9397 30.9705C12.5537 31.3544 12.1126 31.6835 11.6714 31.9578C10.8994 32.4515 10.0722 32.7806 9.18984 32.8903C9.13469 32.8903 9.0244 32.8903 8.96925 32.9452C8.36265 32.9452 7.81119 32.9452 7.20459 32.9452C7.14944 32.9452 7.14944 32.9452 7.0943 32.9452C6.76342 32.8903 6.3774 32.8354 6.04653 32.7257C4.72303 32.3418 3.67526 31.6287 2.84807 30.5865C2.4069 30.038 2.02088 29.3797 1.74516 28.7215C1.41428 27.8987 1.1937 27.0211 1.08341 26.1435C1.02826 25.8143 0.973116 25.4852 0.973116 25.1013C0.973116 24.7722 0.917969 24.443 0.917969 24.1688C0.917969 23.8945 0.917969 23.5654 0.917969 23.2911C0.917969 23.0717 0.917969 22.8523 0.917969 22.6878C0.917969 22.3587 0.973116 22.0295 0.973116 21.7004C1.02826 21.2616 1.08341 20.8228 1.13855 20.384C1.30399 19.4515 1.46943 18.519 1.74516 17.6413C2.07603 16.4894 2.46205 15.3376 3.01351 14.2954C3.45468 13.3629 3.95099 12.4852 4.50244 11.6624C5.0539 10.8945 5.60536 10.2363 6.26711 9.57806C6.76342 9.13924 7.25973 8.70042 7.81119 8.37131C8.47294 7.93249 9.18984 7.60337 9.96188 7.38396C10.5685 7.21941 11.2302 7.05485 11.892 7.05485C11.9471 7.05485 12.0023 7.05485 12.0574 7.05485C12.1677 7.05485 12.2229 7.05485 12.3331 7.05485C12.3883 7.05485 12.4434 7.05485 12.4986 7.05485C12.8295 7.05485 13.1603 7.1097 13.4361 7.16455C14.4838 7.32911 15.4765 7.65823 16.3588 8.20675C17.186 8.70042 17.9029 9.24894 18.6198 9.90717C19.0609 10.2911 19.447 10.73 19.833 11.1139C20.219 11.5527 20.5499 11.9367 20.8807 12.3755C20.991 12.4852 20.991 12.4852 21.0462 12.3755C21.2116 12.1561 21.4322 11.8819 21.5976 11.6624C21.9837 11.1688 22.3697 10.73 22.8108 10.2363C23.1969 9.85232 23.5829 9.46835 23.9689 9.08439C24.4101 8.70042 24.9064 8.31645 25.4578 7.98734C26.0093 7.65823 26.6159 7.38396 27.2225 7.21941C27.6637 7.1097 28.0497 7 28.4909 7C28.8217 7 29.1526 7 29.5386 7C29.8144 7 30.0901 7.05485 30.421 7.1097C31.3033 7.27426 32.1305 7.65823 32.9577 8.09705C33.6746 8.53587 34.3363 9.08439 34.9429 9.63291C35.1084 9.79747 35.3289 10.0169 35.4944 10.2363C35.8804 10.6751 36.2113 11.1139 36.5421 11.6076C37.2039 12.5949 37.7553 13.5823 38.1965 14.6793C38.4722 15.2827 38.6928 15.8861 38.8583 16.5443C39.0788 17.2025 39.2443 17.9156 39.4097 18.5738C39.52 19.1224 39.6303 19.616 39.6855 20.1646C39.7406 20.5485 39.7957 20.8776 39.7957 21.2616C39.8509 21.5359 39.8509 21.8101 39.8509 22.0844C40.0163 22.3038 40.0163 22.3587 40.0163 22.4135ZM36.3216 23.8397C36.3216 23.73 36.3216 23.6751 36.3216 23.6203C36.3216 23.2363 36.3216 22.8523 36.2664 22.4684C36.2664 22.1392 36.2113 21.8101 36.1561 21.481C36.101 20.9873 36.0458 20.4388 35.9355 19.9451C35.715 18.6835 35.3841 17.4219 34.8878 16.27C34.5569 15.4473 34.1709 14.6245 33.6746 13.8565C33.2885 13.1983 32.7922 12.6498 32.2408 12.1013C31.8548 11.7173 31.4687 11.3882 30.9724 11.1688C30.2555 10.73 29.4283 10.5105 28.6012 10.5105C28.3806 10.5105 28.16 10.5654 27.9394 10.5654C27.4982 10.6751 27.0571 10.8397 26.671 11.0591C26.2299 11.3333 25.8439 11.6076 25.513 11.9367C25.0167 12.4304 24.5204 12.9789 24.0792 13.5274C23.6932 14.0211 23.3623 14.5148 23.0314 15.0633C22.9211 15.2278 22.9211 15.173 23.0314 15.3376C23.7483 16.4346 24.4652 17.5316 25.127 18.6287C25.7887 19.7257 26.3953 20.7679 27.0571 21.865C27.3879 22.4135 27.7188 22.962 28.1048 23.5106C28.6563 24.3333 29.1526 25.1561 29.7592 25.9789C30.1452 26.5274 30.5864 27.076 31.0276 27.6245C31.2481 27.8987 31.5239 28.1181 31.8547 28.3376C32.1856 28.557 32.5165 28.6667 32.8474 28.7215C33.1782 28.7764 33.454 28.7764 33.7849 28.7215C34.4466 28.6667 34.9981 28.3376 35.3841 27.8439C35.6047 27.5148 35.7701 27.1857 35.9355 26.8017C36.1561 26.1435 36.2664 25.4852 36.2664 24.827C36.2664 24.7173 36.2664 24.6625 36.2664 24.5527C36.3216 24.3882 36.3216 24.1139 36.3216 23.8397ZM5.16419 24.0591C5.16419 24.2236 5.16419 24.3882 5.16419 24.5527C5.16419 24.9367 5.21934 25.3207 5.27449 25.7046C5.32963 26.1435 5.43992 26.5823 5.66051 27.0211C5.82594 27.4051 6.04653 27.789 6.3774 28.1181C6.59798 28.3376 6.87371 28.5021 7.14944 28.6118C7.48032 28.7215 7.75604 28.7764 8.08692 28.8312C8.25236 28.8312 8.4178 28.8312 8.58323 28.8312C8.96925 28.7764 9.30013 28.6667 9.631 28.5021C10.017 28.2827 10.2928 28.0633 10.6236 27.789C10.9545 27.5148 11.2302 27.1857 11.4508 26.8565C12.0023 26.1983 12.4434 25.5401 12.9397 24.8819C13.5464 24.0042 14.153 23.0717 14.7044 22.1941C15.0904 21.5907 15.5316 20.9325 15.9176 20.3291C16.3588 19.616 16.8551 18.903 17.2963 18.1899C17.6271 17.6413 18.0132 17.0928 18.344 16.5992C18.4543 16.4346 18.4543 16.4346 18.344 16.3249C17.8477 15.6118 17.2963 14.8987 16.7448 14.2954C16.3036 13.8017 15.8625 13.3629 15.4213 12.924C15.0904 12.6498 14.7596 12.3755 14.3735 12.1561C13.9875 11.9367 13.5464 11.7722 13.05 11.6624C12.7192 11.6076 12.3883 11.5527 12.0574 11.5527C11.7817 11.5527 11.506 11.6076 11.2302 11.6624C10.7339 11.827 10.2928 12.0464 9.85159 12.3207C9.46556 12.5949 9.13469 12.8692 8.85896 13.1983C8.58323 13.4726 8.36265 13.8017 8.08692 14.1308C7.59061 14.789 7.20459 15.5021 6.87371 16.27C6.43255 17.2574 6.10167 18.2447 5.82594 19.2321C5.66051 19.9451 5.49507 20.7131 5.38478 21.4262C5.32963 21.7553 5.27449 22.1392 5.27449 22.4684C5.27449 22.7426 5.21934 23.0169 5.21934 23.346C5.1642 23.5105 5.16419 23.7848 5.16419 24.0591Z" fill="#F4F0FF" fill-opacity="0.55"/>
</g>
<defs>
<clipPath id="clip0_74_4274">
<rect width="130" height="40" fill="white" transform="translate(0.5)"/>
</clipPath>
</defs>
</svg>
