<svg width="139" height="40" viewBox="0 0 139 40" fill="none" xmlns="http://www.w3.org/2000/svg">
<g clip-path="url(#clip0_74_4283)">
<path d="M16.094 1.39861C16.37 1.39861 16.508 1.53847 16.784 1.67833C15.128 2.37763 13.472 4.19581 12.644 8.11189L9.608 8.95106C10.574 6.15385 12.506 1.39861 16.094 1.39861ZM17.612 2.79721C17.888 3.63637 18.164 4.61539 18.164 6.15385C18.164 6.29371 18.164 6.29371 18.164 6.43357L14.162 7.55245C14.99 4.61539 16.37 3.35665 17.612 2.79721ZM21.2 5.31469L19.406 5.87413C19.406 5.73427 19.406 5.59441 19.406 5.45455C19.406 4.19581 19.268 3.21679 18.992 2.37763C19.958 2.65735 20.786 3.91609 21.2 5.31469ZM30.17 7.55245C30.17 7.41259 30.032 7.27273 29.894 7.27273C29.618 7.27273 26.72 6.99301 26.72 6.99301C26.72 6.99301 24.65 4.89511 24.374 4.75525C24.098 4.47553 23.684 4.61539 23.546 4.61539C23.546 4.61539 23.132 4.75525 22.442 5.03497C21.752 3.07693 20.51 1.25875 18.44 1.25875H18.302C17.75 0.419586 16.922 0.139866 16.232 0.139866C11.264 5.79655e-06 8.918 6.29371 8.09 9.5105C6.986 9.79022 5.882 10.2098 4.64 10.6294C3.536 10.9091 3.536 11.049 3.398 12.028C3.26 12.7273 0.5 34.8252 0.5 34.8252L22.442 39.021L34.31 36.3636C34.31 36.3636 30.17 7.83217 30.17 7.55245Z" fill="#F4F0FF" fill-opacity="0.55"/>
<path d="M29.7564 7.27276C29.6184 7.27276 26.7204 6.99304 26.7204 6.99304C26.7204 6.99304 24.6504 4.89514 24.3744 4.75528C24.2364 4.61542 24.2364 4.61542 24.0984 4.61542L22.4424 39.021L34.3104 36.3637C34.3104 36.3637 30.1704 7.8322 30.1704 7.55248C30.1704 7.41262 29.8944 7.27276 29.7564 7.27276Z" fill="#F4F0FF" fill-opacity="0.55"/>
<path d="M18.4404 13.986L16.9224 18.4615C16.9224 18.4615 15.6804 17.7622 14.0244 17.7622C11.6784 17.7622 11.5404 19.1608 11.5404 19.5804C11.5404 21.5385 16.7844 22.3776 16.7844 27.1329C16.7844 30.9091 14.4384 33.2867 11.2644 33.2867C7.53845 33.2867 5.60645 30.9091 5.60645 30.9091L6.57245 27.5525C6.57245 27.5525 8.50445 29.2308 10.1604 29.2308C11.2644 29.2308 11.6784 28.3916 11.6784 27.6923C11.6784 25.035 7.40045 24.8951 7.40045 20.5594C7.40045 16.9231 10.0224 13.4266 15.1284 13.4266C17.4744 13.2867 18.4404 13.986 18.4404 13.986Z" fill="#F4F0FF"/>
<path d="M48.2481 22.2378C47.0061 21.5385 46.4541 20.979 46.4541 20.2797C46.4541 19.3007 47.2821 18.7413 48.6621 18.7413C50.1801 18.7413 51.5601 19.4406 51.5601 19.4406L52.6641 16.0839C52.6641 16.0839 51.6981 15.2448 48.8001 15.2448C44.6601 15.2448 41.9001 17.6224 41.9001 20.979C41.9001 22.9371 43.2801 24.3357 44.9361 25.3147C46.3161 26.1539 46.8681 26.7133 46.8681 27.5525C46.8681 28.3916 46.1781 29.2308 44.7981 29.2308C42.8661 29.2308 40.9341 28.2518 40.9341 28.2518L39.8301 31.6084C39.8301 31.6084 41.4861 32.7273 44.3841 32.7273C48.5241 32.7273 51.5601 30.6294 51.5601 26.8532C51.5601 24.7553 50.0421 23.2168 48.2481 22.2378ZM64.9461 15.1049C62.8761 15.1049 61.2201 16.0839 59.9781 17.6224L61.7721 8.1119H57.0801L52.5261 32.3077H57.2181L58.7361 24.056C59.2881 20.979 60.9441 19.021 62.4621 19.021C63.5661 19.021 63.9801 19.7203 63.9801 20.8392C63.9801 21.5385 63.9801 22.2378 63.8421 22.9371L62.0481 32.4476H66.7401L68.5341 22.6574C68.6721 21.6783 68.8101 20.4196 68.8101 19.5804C68.8101 16.7832 67.4301 15.1049 64.9461 15.1049ZM76.9521 28.9511C75.2961 28.9511 74.7441 27.5525 74.7441 25.8741C74.7441 23.2168 76.1241 18.7413 78.6081 18.7413C80.2641 18.7413 80.8161 20.1399 80.8161 21.5385C80.8161 24.6154 79.4361 28.9511 76.9521 28.9511ZM79.2981 15.1049C73.6401 15.1049 69.9141 20.2797 69.9141 26.014C69.9141 29.6504 72.1221 32.5874 76.4001 32.5874C81.9201 32.5874 85.6461 27.5525 85.6461 21.6783C85.6461 18.3217 83.7141 15.1049 79.2981 15.1049ZM93.0981 29.0909C91.8561 29.0909 91.1661 28.3916 91.1661 28.3916L91.9941 23.9161C92.5461 20.979 94.0641 19.021 95.7201 19.021C97.1001 19.021 97.6521 20.4196 97.6521 21.6783C97.5141 24.7553 95.7201 29.0909 93.0981 29.0909ZM97.6521 15.1049C94.4781 15.1049 92.6841 17.9021 92.6841 17.9021L92.9601 15.3846H88.8201C88.6821 17.063 88.2681 19.7203 87.8541 21.6783L84.5421 39.021H89.2341L90.4761 32.028H90.6141C90.6141 32.028 91.5801 32.5874 93.3741 32.5874C98.8941 32.5874 102.482 26.8532 102.482 21.1189C102.482 18.042 101.102 15.1049 97.6521 15.1049ZM109.106 8.39162C107.588 8.39162 106.484 9.65036 106.484 11.1888C106.484 12.5874 107.312 13.5664 108.692 13.5664C110.21 13.5664 111.452 12.5874 111.452 10.7692C111.452 9.37064 110.486 8.39162 109.106 8.39162ZM102.62 32.3077H107.312L110.486 15.5245H105.794L102.62 32.3077ZM122.354 15.5245H119.042L119.18 14.6853C119.456 13.007 120.422 11.6084 121.94 11.6084C122.768 11.6084 123.458 11.8881 123.458 11.8881L124.424 8.1119C124.424 8.1119 123.596 7.69232 121.94 7.69232C120.284 7.69232 118.628 8.1119 117.386 9.23078C115.73 10.6294 115.04 12.5874 114.626 14.5455L114.488 15.3846H112.28L111.59 19.021H113.798L111.314 32.3077H116.006L118.49 19.021H121.664L122.354 15.5245ZM133.532 15.5245C133.532 15.5245 130.634 22.9371 129.254 26.993C129.116 25.7343 128.15 15.5245 128.15 15.5245H123.182L125.942 30.9091C125.942 31.1888 125.942 31.4685 125.804 31.7483C125.252 32.8672 124.286 33.8462 123.32 34.5455C122.492 35.2448 121.388 35.6644 120.698 35.9441L121.94 40C122.906 39.8602 124.838 39.021 126.494 37.4825C128.564 35.5245 130.634 32.3077 132.566 28.1119L138.224 15.6644L133.532 15.5245Z" fill="#F4F0FF"/>
</g>
<defs>
<clipPath id="clip0_74_4283">
<rect width="138" height="40" fill="white" transform="translate(0.5)"/>
</clipPath>
</defs>
</svg>
