<svg width="74" height="65" viewBox="0 0 74 65" fill="none" xmlns="http://www.w3.org/2000/svg">
<path d="M72.3531 64.3755C72.5606 64.5578 72.8765 64.5374 73.0588 64.33C73.2411 64.1225 73.2207 63.8066 73.0133 63.6243L72.3531 64.3755ZM3.65673 4.00056C3.86415 4.18286 4.18007 4.16249 4.36237 3.95507C4.54466 3.74765 4.52429 3.43172 4.31687 3.24943L3.65673 4.00056ZM10.2905 8.49942C10.0831 8.31712 9.76713 8.33749 9.58483 8.54491C9.40254 8.75233 9.42291 9.06826 9.63033 9.25055L10.2905 8.49942ZM15.6039 14.5005C15.8114 14.6828 16.1273 14.6625 16.3096 14.4551C16.4919 14.2476 16.4715 13.9317 16.2641 13.7494L15.6039 14.5005ZM22.2377 18.9994C22.0303 18.8171 21.7143 18.8375 21.532 19.0449C21.3497 19.2523 21.3701 19.5682 21.5775 19.7505L22.2377 18.9994ZM27.5511 25.0005C27.7586 25.1828 28.0745 25.1625 28.2568 24.955C28.4391 24.7476 28.4187 24.4317 28.2113 24.2494L27.5511 25.0005ZM34.1849 29.4994C33.9775 29.3171 33.6615 29.3375 33.4792 29.5449C33.2969 29.7523 33.3173 30.0682 33.5247 30.2505L34.1849 29.4994ZM39.4983 35.5005C39.7058 35.6828 40.0217 35.6624 40.204 35.455C40.3863 35.2476 40.3659 34.9317 40.1585 34.7494L39.4983 35.5005ZM46.1321 39.9994C45.9247 39.8171 45.6087 39.8374 45.4264 40.0449C45.2441 40.2523 45.2645 40.5682 45.4719 40.7505L46.1321 39.9994ZM51.4455 46.0005C51.653 46.1828 51.9689 46.1624 52.1512 45.955C52.3335 45.7476 52.3131 45.4316 52.1057 45.2494L51.4455 46.0005ZM58.0793 50.4993C57.8719 50.317 57.5559 50.3374 57.3737 50.5448C57.1914 50.7523 57.2117 51.0682 57.4191 51.2505L58.0793 50.4993ZM63.3927 56.5005C63.6002 56.6828 63.9161 56.6624 64.0984 56.455C64.2807 56.2476 64.2603 55.9316 64.0529 55.7493L63.3927 56.5005ZM70.0265 60.9993C69.8191 60.817 69.5032 60.8374 69.3209 61.0448C69.1386 61.2522 69.1589 61.5682 69.3664 61.7505L70.0265 60.9993ZM0.669926 1.37557L3.65673 4.00056L4.31687 3.24943L1.33007 0.624432L0.669926 1.37557ZM9.63033 9.25055L15.6039 14.5005L16.2641 13.7494L10.2905 8.49942L9.63033 9.25055ZM21.5775 19.7505L27.5511 25.0005L28.2113 24.2494L22.2377 18.9994L21.5775 19.7505ZM33.5247 30.2505L39.4983 35.5005L40.1585 34.7494L34.1849 29.4994L33.5247 30.2505ZM45.4719 40.7505L51.4455 46.0005L52.1057 45.2494L46.1321 39.9994L45.4719 40.7505ZM57.4191 51.2505L63.3927 56.5005L64.0529 55.7493L58.0793 50.4993L57.4191 51.2505ZM69.3664 61.7505L72.3531 64.3755L73.0133 63.6243L70.0265 60.9993L69.3664 61.7505Z" fill="url(#paint0_linear_508_1668)" style="mix-blend-mode:screen"/>
<defs>
<linearGradient id="paint0_linear_508_1668" x1="-249.139" y1="82.9999" x2="969.977" y2="82.9778" gradientUnits="userSpaceOnUse">
<stop stop-color="#BA7AFA"/>
<stop offset="0.5" stop-color="#9B7AFA"/>
<stop offset="1" stop-color="#7D7AFA"/>
</linearGradient>
</defs>
</svg>
