<svg width="128" height="52" viewBox="0 0 128 52" fill="none" xmlns="http://www.w3.org/2000/svg">
<path d="M10 20C10 15.5817 13.5817 12 18 12H120C124.418 12 128 15.5817 128 20V44C128 48.4183 124.418 52 120 52H18C13.5817 52 10 48.4183 10 44V20Z" fill="#F4F0FF"/>
<path d="M35.12 38V26.48H41.944V28.152H36.792V31.4H40.984V33.08H36.792V38H35.12ZM43.3856 38V29.36H44.8736V31.456L44.6656 31.184C44.7723 30.9067 44.911 30.6533 45.0816 30.424C45.2523 30.1893 45.4496 29.9973 45.6736 29.848C45.8923 29.688 46.135 29.5653 46.4016 29.48C46.6736 29.3893 46.951 29.336 47.2336 29.32C47.5163 29.2987 47.7883 29.312 48.0496 29.36V30.928C47.767 30.8533 47.4523 30.832 47.1056 30.864C46.7643 30.896 46.4496 31.0053 46.1616 31.192C45.8896 31.368 45.6736 31.5813 45.5136 31.832C45.359 32.0827 45.247 32.3627 45.1776 32.672C45.1083 32.976 45.0736 33.2987 45.0736 33.64V38H43.3856ZM53.2489 38.24C52.3902 38.24 51.6355 38.0533 50.9849 37.68C50.3395 37.3013 49.8355 36.776 49.4729 36.104C49.1155 35.4267 48.9369 34.6427 48.9369 33.752C48.9369 32.808 49.1129 31.9893 49.4649 31.296C49.8222 30.6027 50.3182 30.0667 50.9529 29.688C51.5875 29.3093 52.3262 29.12 53.1689 29.12C54.0489 29.12 54.7982 29.3253 55.4169 29.736C56.0355 30.1413 56.4969 30.72 56.8009 31.472C57.1102 32.224 57.2329 33.1173 57.1689 34.152H55.4969V33.544C55.4862 32.5413 55.2942 31.8 54.9209 31.32C54.5529 30.84 53.9902 30.6 53.2329 30.6C52.3955 30.6 51.7662 30.864 51.3449 31.392C50.9235 31.92 50.7129 32.6827 50.7129 33.68C50.7129 34.6293 50.9235 35.3653 51.3449 35.888C51.7662 36.4053 52.3742 36.664 53.1689 36.664C53.6915 36.664 54.1422 36.5467 54.5209 36.312C54.9049 36.072 55.2035 35.7307 55.4169 35.288L57.0569 35.808C56.7209 36.5813 56.2115 37.1813 55.5289 37.608C54.8462 38.0293 54.0862 38.24 53.2489 38.24ZM50.1689 34.152V32.848H56.3369V34.152H50.1689ZM62.7958 38.24C61.9371 38.24 61.1824 38.0533 60.5318 37.68C59.8864 37.3013 59.3824 36.776 59.0197 36.104C58.6624 35.4267 58.4838 34.6427 58.4838 33.752C58.4838 32.808 58.6598 31.9893 59.0118 31.296C59.3691 30.6027 59.8651 30.0667 60.4998 29.688C61.1344 29.3093 61.8731 29.12 62.7158 29.12C63.5958 29.12 64.3451 29.3253 64.9638 29.736C65.5824 30.1413 66.0438 30.72 66.3478 31.472C66.6571 32.224 66.7798 33.1173 66.7158 34.152H65.0438V33.544C65.0331 32.5413 64.8411 31.8 64.4678 31.32C64.0998 30.84 63.5371 30.6 62.7798 30.6C61.9424 30.6 61.3131 30.864 60.8918 31.392C60.4704 31.92 60.2598 32.6827 60.2598 33.68C60.2598 34.6293 60.4704 35.3653 60.8918 35.888C61.3131 36.4053 61.9211 36.664 62.7158 36.664C63.2384 36.664 63.6891 36.5467 64.0678 36.312C64.4518 36.072 64.7504 35.7307 64.9638 35.288L66.6038 35.808C66.2678 36.5813 65.7584 37.1813 65.0758 37.608C64.3931 38.0293 63.6331 38.24 62.7958 38.24ZM59.7158 34.152V32.848H65.8837V34.152H59.7158ZM74.5858 38V28.056H70.7538V26.48H80.0898V28.056H76.2578V38H74.5858ZM80.5731 38V29.36H82.0611V31.456L81.8531 31.184C81.9598 30.9067 82.0985 30.6533 82.2691 30.424C82.4398 30.1893 82.6371 29.9973 82.8611 29.848C83.0798 29.688 83.3225 29.5653 83.5891 29.48C83.8611 29.3893 84.1385 29.336 84.4211 29.32C84.7038 29.2987 84.9758 29.312 85.2371 29.36V30.928C84.9545 30.8533 84.6398 30.832 84.2931 30.864C83.9518 30.896 83.6371 31.0053 83.3491 31.192C83.0771 31.368 82.8611 31.5813 82.7011 31.832C82.5465 32.0827 82.4345 32.3627 82.3651 32.672C82.2958 32.976 82.2611 33.2987 82.2611 33.64V38H80.5731ZM86.9206 27.944V26.32H88.5926V27.944H86.9206ZM86.9206 38V29.36H88.5926V38H86.9206ZM93.435 38.24C92.795 38.24 92.259 38.1227 91.827 37.888C91.395 37.648 91.067 37.3333 90.843 36.944C90.6243 36.5493 90.515 36.1173 90.515 35.648C90.515 35.2107 90.5923 34.8267 90.747 34.496C90.9017 34.1653 91.131 33.8853 91.435 33.656C91.739 33.4213 92.1123 33.232 92.555 33.088C92.939 32.976 93.3737 32.8773 93.859 32.792C94.3443 32.7067 94.8537 32.6267 95.387 32.552C95.9257 32.4773 96.459 32.4027 96.987 32.328L96.379 32.664C96.3897 31.9867 96.2457 31.4853 95.947 31.16C95.6537 30.8293 95.147 30.664 94.427 30.664C93.9737 30.664 93.5577 30.7707 93.179 30.984C92.8003 31.192 92.5363 31.5387 92.387 32.024L90.827 31.544C91.0403 30.8027 91.4457 30.2133 92.043 29.776C92.6457 29.3387 93.4457 29.12 94.443 29.12C95.2163 29.12 95.8883 29.2533 96.459 29.52C97.035 29.7813 97.4563 30.1973 97.723 30.768C97.8617 31.0507 97.947 31.3493 97.979 31.664C98.011 31.9787 98.027 32.3173 98.027 32.68V38H96.547V36.024L96.835 36.28C96.4777 36.9413 96.0217 37.4347 95.467 37.76C94.9177 38.08 94.2403 38.24 93.435 38.24ZM93.731 36.872C94.2057 36.872 94.6137 36.7893 94.955 36.624C95.2963 36.4533 95.571 36.2373 95.779 35.976C95.987 35.7147 96.123 35.4427 96.187 35.16C96.2777 34.904 96.3283 34.616 96.339 34.296C96.355 33.976 96.363 33.72 96.363 33.528L96.907 33.728C96.379 33.808 95.899 33.88 95.467 33.944C95.035 34.008 94.643 34.072 94.291 34.136C93.9443 34.1947 93.635 34.2667 93.363 34.352C93.1337 34.432 92.9283 34.528 92.747 34.64C92.571 34.752 92.4297 34.888 92.323 35.048C92.2217 35.208 92.171 35.4027 92.171 35.632C92.171 35.856 92.227 36.064 92.339 36.256C92.451 36.4427 92.6217 36.592 92.851 36.704C93.0803 36.816 93.3737 36.872 93.731 36.872ZM100.264 38V26.24H101.936V38H100.264Z" fill="#04010C"/>
<path d="M0.580458 2.95155C0.370729 1.4263 1.89078 0.245986 3.31655 0.826979L11.3365 4.09507C12.7623 4.67606 13.0244 6.58262 11.8084 7.52688L4.96816 12.8383C3.75212 13.7826 1.96992 13.0563 1.76019 11.5311L0.580458 2.95155Z" fill="#F4F0FF"/>
</svg>
