<svg width="19" height="16" viewBox="0 0 19 16" fill="none" xmlns="http://www.w3.org/2000/svg">
<path d="M6 2.5C6 2.32741 5.86009 2.1875 5.6875 2.1875C4.65196 2.1875 3.8125 1.34804 3.8125 0.3125C3.8125 0.13991 3.67259 0 3.5 0C3.32741 0 3.1875 0.13991 3.1875 0.3125C3.1875 1.34804 2.34804 2.1875 1.3125 2.1875C1.13991 2.1875 1 2.32741 1 2.5C1 2.67259 1.13991 2.8125 1.3125 2.8125C2.34804 2.8125 3.1875 3.65196 3.1875 4.6875C3.1875 4.86009 3.32741 5 3.5 5C3.67259 5 3.8125 4.86009 3.8125 4.6875C3.8125 3.65196 4.65196 2.8125 5.6875 2.8125C5.86009 2.8125 6 2.67259 6 2.5Z" fill="url(#paint0_linear_2119_1914)"/>
<path d="M13.5 2C13.5 1.72386 13.2761 1.5 13 1.5C12.7239 1.5 12.5 1.72386 12.5 2C12.5 4.48488 10.4852 6.5 8 6.5C7.7239 6.5 7.5 6.7239 7.5 7C7.5 7.2761 7.7239 7.5 8 7.5C10.4853 7.5 12.5 9.5142 12.5 12C12.5 12.2761 12.7239 12.5 13 12.5C13.2761 12.5 13.5 12.2761 13.5 12C13.5 9.5141 15.5141 7.5 18 7.5C18.2761 7.5 18.5 7.2761 18.5 7C18.5 6.7239 18.2761 6.5 18 6.5C15.5142 6.5 13.5 4.48492 13.5 2Z" fill="url(#paint1_linear_2119_1914)"/>
<path d="M4.5 8.5C4.5 8.2239 4.27614 8 4 8C3.72386 8 3.5 8.2239 3.5 8.5C3.5 10.1569 2.15686 11.5 0.5 11.5C0.22386 11.5 0 11.7239 0 12C0 12.2761 0.22386 12.5 0.5 12.5C2.15686 12.5 3.5 13.8431 3.5 15.5C3.5 15.7761 3.72386 16 4 16C4.27614 16 4.5 15.7761 4.5 15.5C4.5 13.8431 5.84314 12.5 7.5 12.5C7.7761 12.5 8 12.2761 8 12C8 11.7239 7.7761 11.5 7.5 11.5C5.84314 11.5 4.5 10.1569 4.5 8.5Z" fill="url(#paint2_linear_2119_1914)"/>
<defs>
<linearGradient id="paint0_linear_2119_1914" x1="1" y1="2.5" x2="6" y2="2.5" gradientUnits="userSpaceOnUse">
<stop stop-color="#BA7AFA"/>
<stop offset="0.5" stop-color="#9B7AFA"/>
<stop offset="1" stop-color="#7D7AFA"/>
</linearGradient>
<linearGradient id="paint1_linear_2119_1914" x1="7.5" y1="7" x2="18.5" y2="7" gradientUnits="userSpaceOnUse">
<stop stop-color="#BA7AFA"/>
<stop offset="0.5" stop-color="#9B7AFA"/>
<stop offset="1" stop-color="#7D7AFA"/>
</linearGradient>
<linearGradient id="paint2_linear_2119_1914" x1="-9.7562e-08" y1="12" x2="8" y2="12" gradientUnits="userSpaceOnUse">
<stop stop-color="#BA7AFA"/>
<stop offset="0.5" stop-color="#9B7AFA"/>
<stop offset="1" stop-color="#7D7AFA"/>
</linearGradient>
</defs>
</svg>
